<svg width="117" height="29" viewBox="0 0 117 29" fill="none" xmlns="http://www.w3.org/2000/svg">
<path d="M33.638 0.0419891C33.613 0.0669891 32.363 0.166989 30.888 0.241989C27.788 0.416989 23.438 1.06699 23.113 1.41699C22.963 1.54199 22.638 1.64199 22.363 1.64199C21.813 1.64199 19.863 2.21699 18.588 2.76699C15.788 3.96699 13.163 5.56699 9.41301 8.44199C8.33801 9.24199 7.28801 9.89199 7.08801 9.89199C6.86301 9.89199 5.61301 10.942 4.28801 12.192C1.96301 14.467 0.763007 15.992 0.588007 16.892C0.538007 17.142 0.363007 17.592 0.213007 17.892C0.0630065 18.167 -0.0369935 18.942 0.0130065 19.592L0.0880065 20.767L1.46301 20.692C3.03801 20.617 3.91301 20.317 5.36301 19.342C5.93801 18.967 6.48801 18.642 6.58801 18.642C6.68801 18.642 7.18801 18.342 7.68801 17.942C8.88801 17.042 9.16301 16.892 11.963 15.442C17.788 12.417 19.888 11.417 20.588 11.267C21.013 11.167 21.713 10.917 22.163 10.717C24.038 9.89199 26.188 9.81699 29.588 10.517C30.563 10.717 32.013 10.992 32.838 11.167C33.663 11.317 35.313 11.792 36.488 12.167C37.688 12.567 38.838 12.892 39.088 12.892C39.338 12.892 40.163 13.192 40.938 13.542C42.688 14.367 43.288 14.617 46.088 15.792C48.113 16.667 49.838 17.567 54.188 20.092C54.963 20.517 56.538 21.417 57.713 22.017C58.888 22.642 60.113 23.317 60.463 23.517C63.013 24.892 66.938 26.442 69.638 27.142C70.638 27.392 71.538 27.667 71.663 27.742C71.763 27.792 73.313 28.092 75.113 28.392C77.988 28.867 79.013 28.917 84.338 28.817C90.1131 28.692 92.9631 28.367 93.8131 27.667C93.9631 27.542 94.7131 27.317 95.4381 27.167C100.688 26.067 107.938 22.542 110.813 19.717C113.088 17.467 115.213 12.592 115.213 9.59199C115.213 8.74199 115.338 8.34199 115.588 8.24199C116.013 8.06699 116.713 6.76699 116.713 6.14199C116.713 5.24199 115.563 4.81699 114.963 5.51699C114.713 5.81699 114.563 5.74199 113.888 5.04199C113.438 4.59199 112.663 3.89199 112.163 3.51699C111.288 2.89199 111.088 2.84199 109.788 3.01699C108.988 3.11699 107.963 3.34199 107.463 3.51699C106.988 3.69199 105.813 3.96699 104.838 4.14199C102.963 4.46699 101.113 5.26699 97.8881 7.09199C95.1381 8.66699 92.0381 10.142 91.4881 10.142C91.3131 10.142 90.9381 10.292 90.6381 10.492C89.9631 10.917 87.638 11.142 83.088 11.217C77.963 11.292 72.363 10.642 69.913 9.66699C69.588 9.54199 68.563 9.19199 67.588 8.89199C65.613 8.29199 65.338 8.19199 63.638 7.41699C62.988 7.14199 62.288 6.89199 62.088 6.89199C61.888 6.89199 61.713 6.76699 61.713 6.64199C61.713 6.49199 61.488 6.39199 61.213 6.39199C60.938 6.39199 59.988 6.04199 59.138 5.64199C58.263 5.21699 57.388 4.89199 57.188 4.89199C56.988 4.89199 56.613 4.71699 56.363 4.51699C56.088 4.31699 55.688 4.14199 55.463 4.14199C55.238 4.14199 54.588 3.91699 54.013 3.64199C53.463 3.36699 52.763 3.14199 52.513 3.14199C52.238 3.14199 51.688 2.96699 51.313 2.76699C50.913 2.56699 50.388 2.39199 50.163 2.39199C49.938 2.39199 49.688 2.29199 49.613 2.16699C49.538 2.04199 49.038 1.89199 48.538 1.81699C48.013 1.76699 46.413 1.46699 44.963 1.14199C43.513 0.816989 41.838 0.541989 41.213 0.516989C40.588 0.491989 39.513 0.391989 38.788 0.291989C37.463 0.0919891 33.763 -0.0830109 33.638 0.0419891Z" fill="#F1F1F1"/>
</svg>
