<svg width="470" height="470" viewBox="0 0 470 470" fill="none" xmlns="http://www.w3.org/2000/svg">
<g clip-path="url(#clip0)">
<path fill="#4FA2EE" d="M114.823 277.333C73.01 277.333 42.667 308.736 42.667 351.992C42.667 398.06 2.56297 451.679 2.15697 452.21C-0.249029 455.397 -0.676029 459.657 1.05297 463.25C2.77197 466.854 6.35497 469.187 10.345 469.312C10.449 469.312 12.303 469.333 12.408 469.333C19.898 469.333 47.512 468.625 88.596 459.615C145.614 447.107 192 399.893 192 354.377C192 311.892 157.375 277.333 114.823 277.333Z"/>
<path fill="#4FA2EE" d="M204.5 219.583C200.333 215.416 193.583 215.416 189.417 219.583L158.084 250.906C155.688 253.291 154.574 256.677 155.074 260.031C155.574 263.375 157.637 266.281 160.626 267.875C178.084 277.135 192.209 291.25 201.48 308.688C203.063 311.678 205.97 313.74 209.313 314.24C209.844 314.313 210.376 314.355 210.896 314.355C213.709 314.355 216.427 313.251 218.438 311.23L249.751 279.917C253.918 275.75 253.918 269 249.751 264.834L204.5 219.583Z"/>
<path fill="#4FA2EE" d="M426.667 0C415.271 0 404.563 4.438 396.5 12.5L219.583 189.417C217.583 191.417 216.458 194.125 216.458 196.959C216.458 199.792 217.583 202.501 219.583 204.501L264.833 249.751C266.833 251.751 269.541 252.876 272.375 252.876C275.208 252.876 277.917 251.751 279.917 249.751L456.833 72.833C464.896 64.77 469.333 54.062 469.333 42.666C469.333 19.135 450.198 0 426.667 0Z"/>
</g>
<defs>
<clipPath id="clip0">
<rect width="469.333" height="469.333" fill="white"/>
</clipPath>
</defs>
</svg>
